<svg xmlns="http://www.w3.org/2000/svg" viewBox="0 0 700 420" width="700" height="420">
  <defs>
    <style>
      text { font-family: system-ui, -apple-system, sans-serif; }
    </style>
  </defs>

  <!-- Background -->
  <rect width="700" height="420" rx="12" fill="#0d1117"/>

  <!-- Title -->
  <text x="350" y="36" text-anchor="middle" fill="#e6edf3" font-size="13" font-weight="700" letter-spacing="3">PULSE ECOSYSTEM · ARCHITECTURE</text>
  <line x1="200" y1="48" x2="500" y2="48" stroke="#30363d" stroke-width="1"/>

  <!-- DESIGN SYSTEM (top card) -->
  <rect x="150" y="64" width="400" height="80" rx="8" fill="none" stroke="#6366f1" stroke-width="1.5"/>
  <rect x="150" y="64" width="400" height="24" rx="8" fill="#6366f120"/>
  <rect x="150" y="76" width="400" height="12" fill="#6366f120"/>
  <text x="170" y="80" fill="#6366f1" font-size="10" font-weight="700" letter-spacing="2">PULSE DESIGN SYSTEM</text>

  <rect x="170" y="96" width="110" height="36" rx="6" fill="#161b22" stroke="#6366f1" stroke-width="1" stroke-opacity="0.4"/>
  <text x="225" y="113" text-anchor="middle" fill="#a5b4fc" font-size="11" font-weight="600">100+ Components</text>
  <text x="225" y="126" text-anchor="middle" fill="#7d8590" font-size="9">Radix UI · Tailwind</text>

  <rect x="295" y="96" width="110" height="36" rx="6" fill="#161b22" stroke="#6366f1" stroke-width="1" stroke-opacity="0.4"/>
  <text x="350" y="113" text-anchor="middle" fill="#a5b4fc" font-size="11" font-weight="600">Design Tokens</text>
  <text x="350" y="126" text-anchor="middle" fill="#7d8590" font-size="9">Dark · Light · i18n</text>

  <rect x="420" y="96" width="110" height="36" rx="6" fill="#161b22" stroke="#6366f1" stroke-width="1" stroke-opacity="0.4"/>
  <text x="475" y="113" text-anchor="middle" fill="#a5b4fc" font-size="11" font-weight="600">3 Languages</text>
  <text x="475" y="126" text-anchor="middle" fill="#7d8590" font-size="9">PT · EN · ES</text>

  <!-- Connection arrows -->
  <line x1="230" y1="144" x2="140" y2="180" stroke="#30363d" stroke-width="1.5"/>
  <polygon points="136,176 140,186 145,177" fill="#30363d"/>

  <line x1="350" y1="144" x2="350" y2="180" stroke="#30363d" stroke-width="1.5"/>
  <polygon points="345,177 350,186 355,177" fill="#30363d"/>

  <line x1="470" y1="144" x2="560" y2="180" stroke="#30363d" stroke-width="1.5"/>
  <polygon points="555,177 560,186 565,176" fill="#30363d"/>

  <!-- PULSE CHAT -->
  <rect x="30" y="190" width="200" height="110" rx="8" fill="none" stroke="#14b8a6" stroke-width="1.5"/>
  <rect x="30" y="190" width="200" height="24" rx="8" fill="#14b8a620"/>
  <rect x="30" y="202" width="200" height="12" fill="#14b8a620"/>
  <text x="50" y="206" fill="#14b8a6" font-size="10" font-weight="700" letter-spacing="2">PULSE CHAT</text>

  <rect x="45" y="222" width="170" height="28" rx="6" fill="#161b22" stroke="#14b8a6" stroke-width="1" stroke-opacity="0.4"/>
  <text x="130" y="239" text-anchor="middle" fill="#5eead4" font-size="11" font-weight="600">Real-time WebSocket</text>

  <rect x="45" y="258" width="170" height="28" rx="6" fill="#161b22" stroke="#14b8a6" stroke-width="1" stroke-opacity="0.4"/>
  <text x="130" y="275" text-anchor="middle" fill="#7d8590" font-size="10">Express · Socket.io · Prisma</text>

  <rect x="85" y="292" width="90" height="6" rx="3" fill="#14b8a640"/>
  <rect x="85" y="292" width="60" height="6" rx="3" fill="#14b8a6"/>

  <!-- PULSE FINANCE -->
  <rect x="250" y="190" width="200" height="110" rx="8" fill="none" stroke="#f59e0b" stroke-width="1.5"/>
  <rect x="250" y="190" width="200" height="24" rx="8" fill="#f59e0b20"/>
  <rect x="250" y="202" width="200" height="12" fill="#f59e0b20"/>
  <text x="270" y="206" fill="#f59e0b" font-size="10" font-weight="700" letter-spacing="2">PULSE FINANCE</text>

  <rect x="265" y="222" width="170" height="28" rx="6" fill="#161b22" stroke="#f59e0b" stroke-width="1" stroke-opacity="0.4"/>
  <text x="350" y="239" text-anchor="middle" fill="#fbbf24" font-size="11" font-weight="600">Clean Architecture</text>

  <rect x="265" y="258" width="170" height="28" rx="6" fill="#161b22" stroke="#f59e0b" stroke-width="1" stroke-opacity="0.4"/>
  <text x="350" y="275" text-anchor="middle" fill="#7d8590" font-size="10">Hono · Prisma · Redis</text>

  <rect x="305" y="292" width="90" height="6" rx="3" fill="#f59e0b40"/>
  <rect x="305" y="292" width="60" height="6" rx="3" fill="#f59e0b"/>

  <!-- COMING SOON -->
  <rect x="470" y="190" width="200" height="110" rx="8" fill="none" stroke="#64748b" stroke-width="1.5" stroke-dasharray="6,3"/>
  <rect x="470" y="190" width="200" height="24" rx="8" fill="#64748b20"/>
  <rect x="470" y="202" width="200" height="12" fill="#64748b20"/>
  <text x="490" y="206" fill="#64748b" font-size="10" font-weight="700" letter-spacing="2">COMING SOON</text>

  <rect x="485" y="222" width="170" height="28" rx="6" fill="#161b22" stroke="#64748b" stroke-width="1" stroke-opacity="0.4"/>
  <text x="570" y="239" text-anchor="middle" fill="#94a3b8" font-size="11" font-weight="600">Vexiat</text>

  <rect x="485" y="258" width="170" height="28" rx="6" fill="#161b22" stroke="#64748b" stroke-width="1" stroke-opacity="0.4"/>
  <text x="570" y="275" text-anchor="middle" fill="#94a3b8" font-size="11" font-weight="600">Pulse Market · Pulse AI</text>

  <rect x="525" y="292" width="90" height="6" rx="3" fill="#64748b40"/>
  <rect x="525" y="292" width="20" height="6" rx="3" fill="#64748b"/>

  <!-- Stats bar -->
  <line x1="30" y1="320" x2="670" y2="320" stroke="#30363d" stroke-width="1"/>

  <rect x="60" y="336" width="130" height="44" rx="6" fill="#161b22" stroke="#30363d" stroke-width="1"/>
  <text x="125" y="355" text-anchor="middle" fill="#e6edf3" font-size="14" font-weight="700">3+</text>
  <text x="125" y="371" text-anchor="middle" fill="#7d8590" font-size="9">SaaS Apps</text>

  <rect x="215" y="336" width="130" height="44" rx="6" fill="#161b22" stroke="#30363d" stroke-width="1"/>
  <text x="280" y="355" text-anchor="middle" fill="#e6edf3" font-size="14" font-weight="700">380+</text>
  <text x="280" y="371" text-anchor="middle" fill="#7d8590" font-size="9">Automated Tests</text>

  <rect x="370" y="336" width="130" height="44" rx="6" fill="#161b22" stroke="#30363d" stroke-width="1"/>
  <text x="435" y="355" text-anchor="middle" fill="#e6edf3" font-size="14" font-weight="700">52k+</text>
  <text x="435" y="371" text-anchor="middle" fill="#7d8590" font-size="9">Lines of Code</text>

  <rect x="525" y="336" width="130" height="44" rx="6" fill="#161b22" stroke="#30363d" stroke-width="1"/>
  <text x="590" y="355" text-anchor="middle" fill="#e6edf3" font-size="14" font-weight="700">847+</text>
  <text x="590" y="371" text-anchor="middle" fill="#7d8590" font-size="9">Git Commits</text>

  <!-- Footer -->
  <line x1="200" y1="398" x2="500" y2="398" stroke="#30363d" stroke-width="1"/>
  <text x="350" y="414" text-anchor="middle" fill="#484f58" font-size="9" letter-spacing="2">PULSE ECOSYSTEM OVERVIEW</text>
</svg>
